<svg xmlns="http://www.w3.org/2000/svg" width="960" height="1200" viewBox="0 0 960 1200" role="img" aria-label="Placeholder illustration: upholstered bed and headboard elevation">
  <defs>
    <pattern id="dots" width="26" height="26" patternUnits="userSpaceOnUse">
      <circle cx="1.2" cy="1.2" r="1.2" fill="#202223" opacity="0.07"/>
    </pattern>
  </defs>
  <rect width="960" height="1200" fill="#F4F0E7"/>
  <rect width="960" height="1200" fill="url(#dots)"/>
  <circle cx="480" cy="620" r="340" fill="#A99D8A" fill-opacity="0.07"/>

  <g stroke="#202223" stroke-opacity="0.8" stroke-width="2.5" fill="none" stroke-linejoin="round" stroke-linecap="round">
    <!-- headboard -->
    <rect x="240" y="360" width="480" height="210" rx="18"/>
    <!-- headboard panel lines -->
    <line x1="320" y1="380" x2="320" y2="550" stroke-opacity="0.35"/>
    <line x1="400" y1="380" x2="400" y2="550" stroke-opacity="0.35"/>
    <line x1="480" y1="380" x2="480" y2="550" stroke-opacity="0.35"/>
    <line x1="560" y1="380" x2="560" y2="550" stroke-opacity="0.35"/>
    <line x1="640" y1="380" x2="640" y2="550" stroke-opacity="0.35"/>
    <!-- mattress + bedding -->
    <rect x="212" y="570" width="536" height="120" rx="14"/>
    <path d="M212 630 C 330 610, 420 650, 560 626 C 650 612, 700 632, 748 624" stroke-opacity="0.5"/>
    <!-- bedside tables -->
    <rect x="80" y="540" width="100" height="90" rx="8"/>
    <rect x="780" y="540" width="100" height="90" rx="8"/>
    <line x1="80" y1="630" x2="80" y2="660"/>
    <line x1="880" y1="630" x2="880" y2="660"/>
  </g>
  <!-- throw accent -->
  <path d="M212 660 h190" stroke="#C8A875" stroke-width="3" stroke-dasharray="10 9"/>

  <line x1="120" y1="880" x2="840" y2="880" stroke="#202223" stroke-opacity="0.3" stroke-width="2"/>
  <g stroke="#C8A875" stroke-width="1.5" opacity="0.8" fill="none">
    <path d="M28 44 V28 H44"/>
    <path d="M916 28 H932 V44"/>
    <path d="M932 1136 V1152 H916"/>
    <path d="M44 1152 H28 V1136"/>
  </g>
  <text x="52" y="1140" font-family="Inter, system-ui, sans-serif" font-size="15" letter-spacing="3.5" fill="#8E8A82">PLACEHOLDER ILLUSTRATION · SWAP WITH RAMZAAR PHOTOGRAPHY</text>
</svg>
