<svg xmlns="http://www.w3.org/2000/svg" width="1200" height="900" viewBox="0 0 1200 900" role="img" aria-label="Placeholder illustration: two accent chairs in profile, one upholstered one timber">
  <defs>
    <pattern id="dots" width="26" height="26" patternUnits="userSpaceOnUse">
      <circle cx="1.2" cy="1.2" r="1.2" fill="#202223" opacity="0.07"/>
    </pattern>
  </defs>
  <rect width="1200" height="900" fill="#F4F0E7"/>
  <rect width="1200" height="900" fill="url(#dots)"/>
  <circle cx="600" cy="520" r="360" fill="#A99D8A" fill-opacity="0.07"/>

  <!-- upholstered lounge chair, profile -->
  <g transform="translate(60,60)" stroke="#202223" stroke-opacity="0.8" stroke-width="2.5" fill="none" stroke-linejoin="round" stroke-linecap="round">
    <path d="M300 220 C 380 210, 420 260, 416 340 L416 470 L300 470 C 260 470, 250 430, 258 380 C 264 330, 260 250, 300 220 Z"/>
    <path d="M258 380 C 300 370, 380 372, 416 380"/>
    <path d="M300 470 L292 560 M416 470 L428 560"/>
    <line x1="316" y1="440" x2="400" y2="440" stroke="#C8A875" stroke-width="2" stroke-dasharray="2 9"/>
  </g>

  <!-- timber desk chair, profile -->
  <g transform="translate(430,90)" stroke="#202223" stroke-opacity="0.8" stroke-width="2.5" fill="none" stroke-linejoin="round" stroke-linecap="round">
    <rect x="330" y="200" width="34" height="270" rx="10"/>
    <rect x="318" y="330" width="170" height="40" rx="10"/>
    <path d="M330 470 L318 560 M470 470 L488 560"/>
    <line x1="330" y1="240" x2="460" y2="240" stroke-opacity="0.5"/>
  </g>

  <line x1="180" y1="700" x2="1020" y2="700" stroke="#202223" stroke-opacity="0.3" stroke-width="2"/>
  <g stroke="#C8A875" stroke-width="1.5" opacity="0.8" fill="none">
    <path d="M28 44 V28 H44"/>
    <path d="M1156 28 H1172 V44"/>
    <path d="M1172 856 V872 H1156"/>
    <path d="M44 872 H28 V856"/>
  </g>
  <text x="52" y="856" font-family="Inter, system-ui, sans-serif" font-size="15" letter-spacing="3.5" fill="#8E8A82">PLACEHOLDER ILLUSTRATION · SWAP WITH RAMZAAR PHOTOGRAPHY</text>
</svg>
