<svg xmlns="http://www.w3.org/2000/svg" width="900" height="900" viewBox="0 0 900 900" role="img" aria-label="Placeholder illustration: layered custom cushions">
  <defs>
    <pattern id="dots" width="26" height="26" patternUnits="userSpaceOnUse">
      <circle cx="1.2" cy="1.2" r="1.2" fill="#202223" opacity="0.07"/>
    </pattern>
  </defs>
  <rect width="900" height="900" fill="#F4F0E7"/>
  <rect width="900" height="900" fill="url(#dots)"/>
  <circle cx="450" cy="500" r="300" fill="#A99D8A" fill-opacity="0.07"/>

  <g stroke="#202223" stroke-opacity="0.8" stroke-width="2.5" fill="none" stroke-linejoin="round" stroke-linecap="round">
    <rect x="200" y="330" width="300" height="300" rx="28" transform="rotate(-8 350 480)" fill="#F4F0E7"/>
    <rect x="400" y="360" width="290" height="290" rx="28" transform="rotate(7 545 505)" fill="#F4F0E7"/>
    <rect x="300" y="420" width="250" height="250" rx="24" transform="rotate(-2 425 545)" fill="#F4F0E7"/>
  </g>
  <!-- welt piping on each cushion -->
  <rect x="222" y="352" width="256" height="256" rx="24" transform="rotate(-8 350 480)" fill="none" stroke="#C8A875" stroke-width="2" stroke-dasharray="2 9"/>
  <rect x="422" y="382" width="246" height="246" rx="24" transform="rotate(7 545 505)" fill="none" stroke="#C8A875" stroke-width="2" stroke-dasharray="2 9"/>

  <!-- floor shadow -->
  <ellipse cx="450" cy="700" rx="270" ry="22" fill="#A99D8A" fill-opacity="0.25"/>

  <g stroke="#C8A875" stroke-width="1.5" opacity="0.8" fill="none">
    <path d="M28 44 V28 H44"/>
    <path d="M856 28 H872 V44"/>
    <path d="M872 836 V852 H856"/>
    <path d="M44 852 H28 V836"/>
  </g>
  <text x="52" y="820" font-family="Inter, system-ui, sans-serif" font-size="15" letter-spacing="3.5" fill="#8E8A82">PLACEHOLDER ILLUSTRATION · SWAP WITH RAMZAAR PHOTOGRAPHY</text>
</svg>
